<svg preserveAspectRatio="xMidYMid meet" data-bbox="61.5 39.5 76.999 121"
    viewBox="61.5 39.5 76.999 121" height="200" width="200" xmlns="http://www.w3.org/2000/svg"
    data-type="color" role="presentation" aria-hidden="true" aria-labelledby="svgcid--n1jqi3yjpk7o">
    <title id="svgcid--n1jqi3yjpk7o"></title>
    <g>
        <path
            d="M107.654 136.406H92.346c-.706 0-1.279.575-1.279 1.285v21.524c0 .71.573 1.285 1.279 1.285h15.307c.706 0 1.279-.575 1.279-1.285v-21.524a1.28 1.28 0 0 0-1.278-1.285z"
            fill="#E98866" data-color="1"></path>
        <path
            d="M105.594 39.5H94.406C76.261 39.5 61.5 54.327 61.5 72.553v34.803c0 18.226 14.761 33.053 32.906 33.053h11.187c18.145 0 32.906-14.827 32.906-33.053V72.553c.001-18.226-14.76-33.053-32.905-33.053zm26.338 36.508h-23.215c-1.814 0-3.284 1.477-3.284 3.298s1.47 3.298 3.284 3.298h23.215v15.137h-24.528c-1.814 0-3.284 1.477-3.284 3.298s1.47 3.298 3.284 3.298h24.528v3.019c0 .554-.049 1.095-.083 1.641h-24.446c-1.814 0-3.284 1.477-3.284 3.298s1.47 3.298 3.284 3.298h23.204a26.471 26.471 0 0 1-2.481 5.405 3.224 3.224 0 0 0-.844-.124h-19.878a3.291 3.291 0 0 0-3.284 3.298 3.291 3.291 0 0 0 3.284 3.298h15.26c-4.598 3.95-10.558 6.342-17.07 6.342H94.406c-6.512 0-12.472-2.392-17.07-6.342h13.946a3.291 3.291 0 0 0 3.284-3.298 3.291 3.291 0 0 0-3.284-3.298H71.804a26.412 26.412 0 0 1-2.412-5.281h21.89c1.814 0 3.284-1.477 3.284-3.298s-1.47-3.298-3.284-3.298H68.151c-.034-.546-.083-1.087-.083-1.641v-3.019h23.214c1.814 0 3.284-1.477 3.284-3.298s-1.47-3.298-3.284-3.298H68.068V82.604h24.528c1.814 0 3.284-1.477 3.284-3.298s-1.47-3.298-3.284-3.298H68.068v-3.455c0-.407.043-.804.061-1.207h24.467a3.291 3.291 0 0 0 3.284-3.298 3.291 3.291 0 0 0-3.284-3.298H69.24a26.344 26.344 0 0 1 2.419-5.47c.334.115.686.191 1.059.191h19.878a3.291 3.291 0 0 0 3.284-3.298 3.291 3.291 0 0 0-3.284-3.298H76.865c4.663-4.199 10.801-6.778 17.542-6.778h11.187c6.741 0 12.878 2.579 17.542 6.778h-14.418a3.291 3.291 0 0 0-3.284 3.298 3.291 3.291 0 0 0 3.284 3.298h19.739a26.326 26.326 0 0 1 2.304 5.28h-22.043a3.291 3.291 0 0 0-3.284 3.298 3.291 3.291 0 0 0 3.284 3.298h23.154c.018.403.061.8.061 1.207v3.454z"
            fill="#0E4828" data-color="2"></path>
    </g>
</svg>