<svg preserveAspectRatio="xMidYMid meet" data-bbox="62 49.5 76 101" viewBox="62 49.5 76 101"
    height="200" width="200" xmlns="http://www.w3.org/2000/svg" data-type="color"
    role="presentation" aria-hidden="true" aria-labelledby="svgcid--7qlguyxrsrfc">
    <title id="svgcid--7qlguyxrsrfc"></title>
    <g>
        <path
            d="M134.183 71.729l-23.201-19.113c-.977-.912-1.796-1.912-3.021-1.375-1.223.538-1.23 1.269-1.23 2.612v20.353c0 1.865 1.503 3.377 3.357 3.377H131.9a3.355 3.355 0 0 0 3.124-2.144 3.39 3.39 0 0 0-.841-3.71z"
            fill="#E98866" data-color="1"></path>
        <path
            d="M134.643 150.5H65.357c-1.854 0-3.357-1.512-3.357-3.377V52.877c0-1.865 1.503-3.377 3.357-3.377h43.555a3.34 3.34 0 0 1 2.196.824l25.732 22.41a3.383 3.383 0 0 1 1.16 2.553v71.836c0 1.865-1.503 3.377-3.357 3.377zm-65.93-6.754h62.574V76.83L107.66 56.254H68.713v87.492z"
            fill="#0E4828" data-color="2"></path>
        <path
            d="M80.971 110.456h38.058a2.02 2.02 0 0 0 2.014-2.026 2.02 2.02 0 0 0-2.014-2.026H80.971a2.02 2.02 0 0 0-2.014 2.026 2.02 2.02 0 0 0 2.014 2.026z"
            fill="#0E4828" data-color="2"></path>
        <path
            d="M119.029 114.985H80.971a2.02 2.02 0 0 0-2.014 2.026 2.02 2.02 0 0 0 2.014 2.026h38.058a2.02 2.02 0 0 0 2.014-2.026 2.02 2.02 0 0 0-2.014-2.026z"
            fill="#0E4828" data-color="2"></path>
        <path
            d="M119.029 123.566H80.971c-1.112 0-2.014.907-2.014 2.026s.902 2.026 2.014 2.026h38.058c1.112 0 2.014-.907 2.014-2.026s-.902-2.026-2.014-2.026z"
            fill="#0E4828" data-color="2"></path>
    </g>
</svg>